<svg xmlns="http://www.w3.org/2000/svg" width="132" height="83" viewBox="0 0 132 83" fill="none">
    <path d="M26.5836 77.115C24.4693 78.7174 25.483 82.4099 28.0377 82.4119L122.02 82.4848C124.669 82.4869 125.616 78.572 123.327 77.0821L95.0881 58.7054C93.7053 57.8055 93.3745 55.7348 94.3932 54.3559L130.936 4.89367C132.844 2.31027 129.961 -1.23036 127.479 0.650021L26.5836 77.115Z" fill="url(#paint0_linear_45_21769)"/>
    <path d="M105.816 5.47922C107.93 3.8767 106.916 0.184165 104.362 0.182513L10.378 0.121732C7.7287 0.120019 6.78182 4.03461 9.07116 5.52442L37.3119 23.9024C38.6947 24.8023 39.0255 26.873 38.0068 28.2519L1.46737 77.7101C-0.441304 80.2936 2.44256 83.8343 4.9237 81.9536L105.816 5.47922Z" fill="url(#paint1_linear_45_21769)"/>
    <defs>
    <linearGradient id="paint0_linear_45_21769" x1="66.2015" y1="0.121094" x2="66.2015" y2="82.4848" gradientUnits="userSpaceOnUse">
    <stop stop-color="#310ED9"/>
    <stop offset="1" stop-color="#6949FF"/>
    </linearGradient>
    <linearGradient id="paint1_linear_45_21769" x1="66.2015" y1="0.121094" x2="66.2015" y2="82.4848" gradientUnits="userSpaceOnUse">
    <stop stop-color="#310ED9"/>
    <stop offset="1" stop-color="#6949FF"/>
    </linearGradient>
    </defs>
    </svg>